Simulation
nRows=48
nColumns=15
endheader
time  TH_x TH_y TH_z SC_y  SC_z  SC_x  AC_y  AC_z  AC_x  GH_y  GH_z  GH_yy  EL_x  PS_y
0.0  0.000000  0.000000  0.000000  -40.97484877243665  6.293857566463187  5.290427962726946  44.29758865362892  7.587873531294734  0.1377196771482812  176.51274831992714  6.5663999759840275  -151.4390090729166  22.633543898540292  120.000000
0.05745  0.000000  0.000000  0.000000  -39.04867987087562  5.781349097086182  3.2109027555671976  43.656144199614864  7.681186330055191  0.4199799932717609  176.65071803504614  3.4117809482743766  -152.8551524018244  22.05067231544431  120.000000
0.1149  0.000000  0.000000  0.000000  -37.27640214010243  5.113679156789746  1.1191411094834265  43.10109681954028  7.5980553742700945  0.7378104030098032  173.0070869794227  0.4244127508879093  -150.47828845263098  21.649321595823874  120.000000
0.17235  0.000000  0.000000  0.000000  -35.75927255193236  4.356141071289721  -0.8907321878554534  42.66360876581754  7.403313542067252  1.1103253624467668  0.05434668483053439  2.446074231782854  21.20862836387692  21.508669067604405  120.000000
0.2298  0.000000  0.000000  0.000000  -34.54152936340391  3.591437626828289  -2.7489915099574667  42.35604708293289  7.189779367780513  1.550113578178781  0.3568573023883495  5.2598791104389  19.636912817038546  21.63604149622513  120.000000
0.28725  0.000000  0.000000  0.000000  -33.63466853207354  2.906776198556773  -4.415903301967857  42.15904570526153  7.058823510261562  2.0659403466250637  0.5875980929313901  8.089617186581053  18.121436679017812  21.966978788696565  120.000000
0.3447  0.000000  0.000000  0.000000  -33.045999024091266  2.3840676346297935  -5.866517267370681  42.03552775319187  7.08400743820166  2.6521091136174193  0.5058788029472573  10.99626172855445  16.885320857187597  22.401444242364025  120.000000
0.40215  0.000000  0.000000  0.000000  -32.790823584436765  2.0806451877602368  -7.0698649556430295  41.949020345008925  7.289225923111301  3.2790068580325555  0.19603505109837144  14.031425842304872  15.826489272917149  22.82901267478239  120.000000
0.4596  0.000000  0.000000  0.000000  -32.879824706290655  2.0330746006886407  -7.9866497372061485  41.874589350982475  7.646758499100421  3.9066347144916973  -0.2074925856309398  17.225578759280896  14.803058906682171  23.157481548704315  120.000000
0.51705  0.000000  0.000000  0.000000  -33.30550901361053  2.2573371725453737  -8.584387522116147  41.80366322197438  8.097861600881455  4.506901243767496  -0.5905884868630391  20.57849852808664  13.708460005749696  23.326141417555423  120.000000
0.5745  0.000000  0.000000  0.000000  -34.04151147869707  2.7486177500318294  -8.875168346456858  41.74301067379349  8.590004420186768  5.094476315315705  -0.8593733518206053  24.06156169708696  12.47089521935774  23.314230266473242  120.000000
0.63195  0.000000  0.000000  0.000000  -35.055805544455  3.47850398892487  -8.909581511940498  41.71748991605948  9.08666613791726  5.71558859401597  -0.9237943581337242  27.63276117651858  11.02782269923467  23.133881926173615  120.000000
0.6894  0.000000  0.000000  0.000000  -36.3167982560077  4.400137281547768  -8.735942252834263  41.76636204444748  9.555707117695768  6.41068344425896  -0.7087655131708229  31.24387387879768  9.324742248071521  22.816559462869275  120.000000
0.74685  0.000000  0.000000  0.000000  -37.79026187803493  5.458163667272073  -8.385969543158115  41.930367335844366  9.977393304300309  7.1991980291315345  -0.18138490526701023  34.839257765758425  7.330859858129615  22.399859756568485  120.000000
0.8043  0.000000  0.000000  0.000000  -39.431860603426905  6.595364970706894  -7.875641720677765  42.23576028476708  10.354410147054788  8.075115290489652  0.6334089392073142  38.35344367330834  5.050131947208441  21.920262976607905  120.000000
0.86175  0.000000  0.000000  0.000000  -41.180453728951996  7.752145017717627  -7.207568027861091  42.68143592412782  10.713655108366446  9.008739845995938  1.655319832037106  41.713144499740544  2.52493322817705  21.409928216205007  120.000000
0.9192  0.000000  0.000000  0.000000  -42.955951840691334  8.8795309279688  -6.3730880525651115  43.23897717212465  11.092156239556282  9.958960366379703  2.7806876521863764  44.84603859200916  -0.176239242490015  20.896040269383498  120.000000
0.97665  0.000000  0.000000  0.000000  -44.66999943967644  9.949091704616825  -5.3555348795265685  43.85720128938827  11.519215124890115  10.882963135428527  3.9091714920583436  47.697741790040226  -2.960972236069807  20.39979585473631  120.000000
1.0341  0.000000  0.000000  0.000000  -46.246575959486144  10.953222170585137  -4.1425036819348025  44.47354034997901  12.00228599911561  11.740808051559952  4.958566841323947  50.240768949710244  -5.710531738446876  19.93345425729031  120.000000
1.09155  0.000000  0.000000  0.000000  -47.638315334112264  11.890105393709023  -2.7363272925759055  45.02854144813804  12.522103923410722  12.50387724469125  5.872233867282769  52.47290889756493  -8.287640594916256  19.499082659646252  120.000000
1.149  0.000000  0.000000  0.000000  -48.83010596520138  12.754577627736328  -1.1626630837139138  45.48378436174374  13.042440056947507  13.153432117309807  6.6229858277863425  54.409484550297584  -10.560117595718499  19.09317862784203  120.000000
1.20645  0.000000  0.000000  0.000000  -49.83293138486373  13.53396797745212  0.5279122920296676  45.82830048983811  13.521777100347503  13.68106886816215  7.211186283624597  56.07883040137904  -12.431891224227448  18.71144113705163  120.000000
1.2639  0.000000  0.000000  0.000000  -50.669373769542155  14.20932992533986  2.2614273874623163  46.07311556347511  13.92366176088428  14.084376986462939  7.657765030553834  57.51489505193585  -13.86779335191592  18.353560562691918  120.000000
1.32135  0.000000  0.000000  0.000000  -51.358715973871  14.761057087106876  3.9448116775689352  46.2440119112885  14.223603087985277  14.361820498469044  7.994277976283766  58.749763739028836  -14.90031550211533  18.023664544936548  120.000000
1.3788  0.000000  0.000000  0.000000  -51.906848683038874  15.172030569188061  5.475082251033973  46.36924855296846  14.410690551654161  14.512001225141939  8.25322378074516  59.80579071928524  -15.6138540113834  17.729448925615497  120.000000
1.43625  0.000000  0.000000  0.000000  -52.3054177092818  15.43261896477162  6.746307138472936  46.473466321171884  14.484608824269545  14.533192233114319  8.46205296624342  60.691531571146214  -16.116586141134622  17.479186232972115  120.000000
1.4937  0.000000  0.000000  0.000000  -52.53661784070033  15.5403869272049  7.658718324937262  46.57180096957625  14.450293564012407  14.427596328821775  8.640267735611676  61.39956153485101  -16.51041514582048  17.280582799367664  120.000000
1.55115  0.000000  0.000000  0.000000  -52.581788070511784  15.49914345401395  8.125666096905583  46.67000919272472  14.31399140096959  14.20448520137791  8.799125518824018  61.907531764325235  -16.86970628618679  17.139369068233886  120.000000
1.6086  0.000000  0.000000  0.000000  -52.42775927848882  15.313499636180122  8.082352227934852  46.76400312229107  14.083053704768016  13.884682912194174  8.941733504888045  62.18104537788898  -17.232413742709234  17.059507681545238  120.000000
1.66605  0.000000  0.000000  0.000000  -52.070111246904126  14.983570742220898  7.494036408342898  46.840751119146134  13.771277633826426  13.501763894360352  9.063779839189657  62.17821002724153  -17.603323921660245  17.041572573869374  120.000000
1.7235  0.000000  0.000000  0.000000  -51.511480989495794  14.501831205846031  6.3625330072272765  46.878625421697826  13.407006864010487  13.098778237742192  9.153647620140685  61.855157029720495  -17.96456002164599  17.079616145876393  120.000000
1.78095  0.000000  0.000000  0.000000  -50.759146072743235  13.854141692572345  4.729419588214041  46.84909322486109  13.0396742977825  12.721202216788239  9.193737838034034  61.17043765525035  -18.288804866806597  17.157906850894303  120.000000
1.8384  0.000000  0.000000  0.000000  -49.82279262324651  13.028442763518928  2.6714111409340444  46.720972985592475  12.739055566456354  12.406087217630393  9.161574575623904  60.08777783958798  -18.55140402473409  17.251725388637944  120.000000
1.89585  0.000000  0.000000  0.000000  -48.71556835180155  12.022635433577967  0.29173463901518587  46.464773045857505  12.585388370901168  12.176047784605723  9.033979556127472  58.57716448545685  -18.73884972189667  17.333046547836773  120.000000
1.9533  0.000000  0.000000  0.000000  -47.456776648041526  10.85186705571749  -2.293960156145767  46.058596146023746  12.653786824395013  12.03650179860847  8.792728244188368  56.61918809640624  -18.853696835290993  17.37835034417942  120.000000
2.01075  0.000000  0.000000  0.000000  -46.07853062747611  9.549178339890114  -4.970325911826676  45.49385837818793  12.996755374003627  11.981045483322188  8.434045999493534  54.211916539022646  -18.91612886189754  17.37541130015994  120.000000
2.0682  0.000000  0.000000  0.000000  -44.63181031508856  8.162072128500618  -7.635222556269032  44.7788632879645  13.631250496939892  11.99896034046014  7.976440767495134  51.378208467376076  -18.960930623510606  17.3239248526208  120.000000
2.1256500000000003  0.000000  0.000000  0.000000  -43.188152681107006  6.746730127822774  -10.209038301313628  43.9388290445007  14.531726706413826  12.082530281521622  7.465473732445267  48.16749091046191  -19.028474903242525  17.22961110558158  120.000000
2.1831  0.000000  0.000000  0.000000  -41.828156644174584  5.362184256334493  -12.637104197904756  43.01156799503456  15.63439330192781  12.234577130817463  6.976755190425678  44.65243119907144  -19.1526632126546  17.096082055810843  120.000000
2.24055  0.000000  0.000000  0.000000  -40.61877929605821  4.069779641806288  -14.888083194560986  42.044644291311485  16.850880937121488  12.465453606881571  6.611843908677687  40.921637546479026  -19.34814262404849  16.917552918651204  120.000000
2.298  0.000000  0.000000  0.000000  -39.59595484183854  2.921087744207268  -16.945825355829033  41.08695295161983  18.083771063927216  12.784408206635154  6.478587848823639  37.064246487947564  -19.59827793432912  16.67739519941479  120.000000
2.3554500000000003  0.000000  0.000000  0.000000  -38.76163827399805  1.9478510879032398  -18.801407376335888  40.18016527350763  19.24428553538669  13.18786603229101  6.660884421805767  33.15783994592185  -19.848699780961983  16.355103269116377  120.000000
2.4129  0.000000  0.000000  0.000000  -38.08996666214438  1.162351461481545  -20.445234551238084  39.35778721872671  20.270644096401472  13.65656125132427  7.203140395633057  29.2686984668379  -20.01902863529897  15.939541582355636  120.000000
2.47035  0.000000  0.000000  0.000000  -37.53839743500077  0.5593137481087834  -21.86236613131555  38.64773298305548  21.137140547913376  14.159316138060753  8.114762031867397  25.459876798910255  -20.027436887313694  15.444865092628913  120.000000
2.5278  0.000000  0.000000  0.000000  -37.064110907147544  0.11720560547101672  -23.035257005447914  38.07377626810782  21.8505543414698  14.659423997908013  9.388607492119219  21.797935832373607  -19.820088968065814  14.916508795720414  120.000000
2.5852500000000003  0.000000  0.000000  0.000000  -36.638755524560196  -0.198799212127106  -23.952352639594555  37.65503539416705  22.43784195525245  15.121853198041835  11.034840857700425  18.35656831147995  -19.407893240483908  14.420405122290935  120.000000
2.6427  0.000000  0.000000  0.000000  -36.258069087533364  -0.4282203932668294  -24.608874709698423  37.407323370381754  22.92887150562792  15.513552617993552  13.139631532029561  15.21628005261521  -18.928114718042252  14.024682641006345  120.000000
2.70015  0.000000  0.000000  0.000000  -35.93594204564758  -0.6003859081064589  -24.990682051741864  37.3444465071523  23.334579895774663  15.79354873959492  15.937945050425153  12.447885582090452  -18.724202890308238  13.779638410839416  120.000000
